{"asset":{"version":"2.0","generator":"painted-abyss scroll","copyright":"Aparicio Silva 3D \u2014 CC BY 4.0"},"scene":0,"scenes":[{"nodes":[0]}],"nodes":[{"mesh":0,"name":"Scroll"}],"meshes":[{"name":"Scroll","primitives":[{"attributes":{"POSITION":0,"NORMAL":1,"TEXCOORD_0":2,"TANGENT":3},"indices":4,"mode":4}]}],"buffers":[{"uri":"scroll.bin","byteLength":298200}],"bufferViews":[{"buffer":0,"byteOffset":0,"byteLength":63384,"target":34962},{"buffer":0,"byteOffset":63384,"byteLength":63384,"target":34962},{"buffer":0,"byteOffset":126768,"byteLength":42256,"target":34962},{"buffer":0,"byteOffset":169024,"byteLength":84512,"target":34962},{"buffer":0,"byteOffset":253536,"byteLength":44664,"target":34963}],"accessors":[{"bufferView":0,"componentType":5126,"count":5282,"type":"VEC3","min":[-0.2,-0.04048421198020411,-0.042402466609076934],"max":[0.2,0.04048421198020411,0.042402466609076934]},{"bufferView":1,"componentType":5126,"count":5282,"type":"VEC3"},{"bufferView":2,"componentType":5126,"count":5282,"type":"VEC2"},{"bufferView":3,"componentType":5126,"count":5282,"type":"VEC4"},{"bufferView":4,"componentType":5123,"count":22332,"type":"SCALAR"}]}