{
	"asset":{
		"generator":"Khronos glTF Blender I/O v4.2.83",
		"version":"2.0"
	},
	"scene":0,
	"scenes":[
		{
			"name":"Scene",
			"nodes":[
				0,
				1,
				2,
				3,
				4,
				5,
				6
			]
		}
	],
	"nodes":[
		{
			"mesh":0,
			"name":"radio"
		},
		{
			"mesh":1,
			"name":"clipboard"
		},
		{
			"mesh":2,
			"name":"gasMask"
		},
		{
			"mesh":3,
			"name":"crowbar"
		},
		{
			"mesh":4,
			"name":"toolbox"
		},
		{
			"mesh":5,
			"name":"oilTin"
		},
		{
			"mesh":6,
			"name":"multimeter"
		}
	],
	"materials":[
		{
			"doubleSided":true,
			"name":"vintage_radio_transceiver",
			"normalTexture":{
				"index":0
			},
			"pbrMetallicRoughness":{
				"baseColorTexture":{
					"index":1
				},
				"metallicRoughnessTexture":{
					"index":2
				}
			}
		},
		{
			"doubleSided":true,
			"name":"vintage_radio_transceiver_accessories",
			"normalTexture":{
				"index":3
			},
			"pbrMetallicRoughness":{
				"baseColorTexture":{
					"index":4
				},
				"metallicRoughnessTexture":{
					"index":5
				}
			}
		},
		{
			"doubleSided":true,
			"name":"clipboard",
			"normalTexture":{
				"index":6
			},
			"pbrMetallicRoughness":{
				"baseColorTexture":{
					"index":7
				},
				"metallicRoughnessTexture":{
					"index":8
				}
			}
		},
		{
			"doubleSided":true,
			"name":"old_gas_mask",
			"normalTexture":{
				"index":9
			},
			"pbrMetallicRoughness":{
				"baseColorTexture":{
					"index":10
				},
				"metallicRoughnessTexture":{
					"index":11
				}
			}
		},
		{
			"doubleSided":true,
			"name":"crowbar_01",
			"normalTexture":{
				"index":12
			},
			"pbrMetallicRoughness":{
				"baseColorTexture":{
					"index":13
				},
				"metallicRoughnessTexture":{
					"index":14
				}
			}
		},
		{
			"doubleSided":true,
			"name":"metal_toolbox",
			"normalTexture":{
				"index":15
			},
			"pbrMetallicRoughness":{
				"baseColorTexture":{
					"index":16
				},
				"metallicRoughnessTexture":{
					"index":17
				}
			}
		},
		{
			"doubleSided":true,
			"name":"oil_tin",
			"normalTexture":{
				"index":18
			},
			"pbrMetallicRoughness":{
				"baseColorTexture":{
					"index":19
				},
				"metallicRoughnessTexture":{
					"index":20
				}
			}
		},
		{
			"doubleSided":true,
			"name":"retro_multimeter",
			"normalTexture":{
				"index":21
			},
			"pbrMetallicRoughness":{
				"baseColorTexture":{
					"index":22
				},
				"metallicRoughnessTexture":{
					"index":23
				}
			}
		},
		{
			"alphaMode":"BLEND",
			"doubleSided":true,
			"name":"retro_multimeter_glass",
			"normalTexture":{
				"index":24
			},
			"pbrMetallicRoughness":{
				"baseColorTexture":{
					"index":25
				},
				"metallicRoughnessTexture":{
					"index":26
				}
			}
		}
	],
	"meshes":[
		{
			"name":"radio",
			"primitives":[
				{
					"attributes":{
						"POSITION":0,
						"NORMAL":1,
						"TEXCOORD_0":2
					},
					"indices":3,
					"material":0
				},
				{
					"attributes":{
						"POSITION":4,
						"NORMAL":5,
						"TEXCOORD_0":6
					},
					"indices":7,
					"material":1
				}
			]
		},
		{
			"name":"clipboard",
			"primitives":[
				{
					"attributes":{
						"POSITION":8,
						"NORMAL":9,
						"TEXCOORD_0":10
					},
					"indices":11,
					"material":2
				}
			]
		},
		{
			"name":"gasMask",
			"primitives":[
				{
					"attributes":{
						"POSITION":12,
						"NORMAL":13,
						"TEXCOORD_0":14
					},
					"indices":15,
					"material":3
				}
			]
		},
		{
			"name":"crowbar",
			"primitives":[
				{
					"attributes":{
						"POSITION":16,
						"NORMAL":17,
						"TEXCOORD_0":18
					},
					"indices":19,
					"material":4
				}
			]
		},
		{
			"name":"toolbox",
			"primitives":[
				{
					"attributes":{
						"POSITION":20,
						"NORMAL":21,
						"TEXCOORD_0":22
					},
					"indices":23,
					"material":5
				}
			]
		},
		{
			"name":"oilTin",
			"primitives":[
				{
					"attributes":{
						"POSITION":24,
						"NORMAL":25,
						"TEXCOORD_0":26
					},
					"indices":27,
					"material":6
				}
			]
		},
		{
			"name":"multimeter",
			"primitives":[
				{
					"attributes":{
						"POSITION":28,
						"NORMAL":29,
						"TEXCOORD_0":30
					},
					"indices":31,
					"material":7
				},
				{
					"attributes":{
						"POSITION":32,
						"NORMAL":33,
						"TEXCOORD_0":34
					},
					"indices":35,
					"material":8
				}
			]
		}
	],
	"textures":[
		{
			"sampler":0,
			"source":0
		},
		{
			"sampler":0,
			"source":1
		},
		{
			"sampler":0,
			"source":2
		},
		{
			"sampler":0,
			"source":3
		},
		{
			"sampler":0,
			"source":4
		},
		{
			"sampler":0,
			"source":5
		},
		{
			"sampler":0,
			"source":6
		},
		{
			"sampler":0,
			"source":7
		},
		{
			"sampler":0,
			"source":8
		},
		{
			"sampler":0,
			"source":9
		},
		{
			"sampler":0,
			"source":10
		},
		{
			"sampler":0,
			"source":11
		},
		{
			"sampler":0,
			"source":12
		},
		{
			"sampler":0,
			"source":13
		},
		{
			"sampler":0,
			"source":14
		},
		{
			"sampler":0,
			"source":15
		},
		{
			"sampler":0,
			"source":16
		},
		{
			"sampler":0,
			"source":17
		},
		{
			"sampler":0,
			"source":18
		},
		{
			"sampler":0,
			"source":19
		},
		{
			"sampler":0,
			"source":20
		},
		{
			"sampler":0,
			"source":21
		},
		{
			"sampler":0,
			"source":22
		},
		{
			"sampler":0,
			"source":23
		},
		{
			"sampler":0,
			"source":21
		},
		{
			"sampler":0,
			"source":24
		},
		{
			"sampler":0,
			"source":23
		}
	],
	"images":[
		{
			"mimeType":"image/jpeg",
			"name":"vintage_radio_transceiver_nor_gl_1k",
			"uri":"textures/vintage_radio_transceiver_nor_gl_1k.jpg"
		},
		{
			"mimeType":"image/jpeg",
			"name":"vintage_radio_transceiver_diff_1k",
			"uri":"textures/vintage_radio_transceiver_diff_1k.jpg"
		},
		{
			"mimeType":"image/jpeg",
			"name":"vintage_radio_transceiver_arm_1k",
			"uri":"textures/vintage_radio_transceiver_arm_1k.jpg"
		},
		{
			"mimeType":"image/jpeg",
			"name":"vintage_radio_transceiver_accessories_nor_gl_1k",
			"uri":"textures/vintage_radio_transceiver_accessories_nor_gl_1k.jpg"
		},
		{
			"mimeType":"image/jpeg",
			"name":"vintage_radio_transceiver_accessories_diff_1k",
			"uri":"textures/vintage_radio_transceiver_accessories_diff_1k.jpg"
		},
		{
			"mimeType":"image/jpeg",
			"name":"vintage_radio_transceiver_accessories_arm_1k",
			"uri":"textures/vintage_radio_transceiver_accessories_arm_1k.jpg"
		},
		{
			"mimeType":"image/jpeg",
			"name":"clipboard_nor_gl_1k",
			"uri":"textures/clipboard_nor_gl_1k.jpg"
		},
		{
			"mimeType":"image/jpeg",
			"name":"clipboard_diff_1k",
			"uri":"textures/clipboard_diff_1k.jpg"
		},
		{
			"mimeType":"image/jpeg",
			"name":"clipboard_arm_1k",
			"uri":"textures/clipboard_arm_1k.jpg"
		},
		{
			"mimeType":"image/jpeg",
			"name":"old_gas_mask_nor_gl_1k",
			"uri":"textures/old_gas_mask_nor_gl_1k.jpg"
		},
		{
			"mimeType":"image/jpeg",
			"name":"old_gas_mask_diff_1k",
			"uri":"textures/old_gas_mask_diff_1k.jpg"
		},
		{
			"mimeType":"image/jpeg",
			"name":"old_gas_mask_arm_1k",
			"uri":"textures/old_gas_mask_arm_1k.jpg"
		},
		{
			"mimeType":"image/jpeg",
			"name":"crowbar_01_nor_gl_1k",
			"uri":"textures/crowbar_01_nor_gl_1k.jpg"
		},
		{
			"mimeType":"image/jpeg",
			"name":"crowbar_01_diff_1k",
			"uri":"textures/crowbar_01_diff_1k.jpg"
		},
		{
			"mimeType":"image/jpeg",
			"name":"crowbar_01_arm_1k",
			"uri":"textures/crowbar_01_arm_1k.jpg"
		},
		{
			"mimeType":"image/jpeg",
			"name":"metal_toolbox_nor_gl_1k",
			"uri":"textures/metal_toolbox_nor_gl_1k.jpg"
		},
		{
			"mimeType":"image/jpeg",
			"name":"metal_toolbox_diff_1k",
			"uri":"textures/metal_toolbox_diff_1k.jpg"
		},
		{
			"mimeType":"image/jpeg",
			"name":"metal_toolbox_arm_1k",
			"uri":"textures/metal_toolbox_arm_1k.jpg"
		},
		{
			"mimeType":"image/jpeg",
			"name":"oil_tin_nor_gl_1k",
			"uri":"textures/oil_tin_nor_gl_1k.jpg"
		},
		{
			"mimeType":"image/jpeg",
			"name":"oil_tin_diff_1k",
			"uri":"textures/oil_tin_diff_1k.jpg"
		},
		{
			"mimeType":"image/jpeg",
			"name":"oil_tin_arm_1k",
			"uri":"textures/oil_tin_arm_1k.jpg"
		},
		{
			"mimeType":"image/jpeg",
			"name":"retro_multimeter_nor_gl_1k",
			"uri":"textures/retro_multimeter_nor_gl_1k.jpg"
		},
		{
			"mimeType":"image/jpeg",
			"name":"retro_multimeter_diff_1k",
			"uri":"textures/retro_multimeter_diff_1k.jpg"
		},
		{
			"mimeType":"image/jpeg",
			"name":"retro_multimeter_arm_1k",
			"uri":"textures/retro_multimeter_arm_1k.jpg"
		},
		{
			"mimeType":"image/png",
			"name":"retro_multimeter_diff_1k",
			"uri":"textures/retro_multimeter_diff_1k.png"
		}
	],
	"accessors":[
		{
			"bufferView":0,
			"componentType":5126,
			"count":7307,
			"max":[
				0.1995948702096939,
				0.13756150007247925,
				0.05490650609135628
			],
			"min":[
				-0.11620638519525528,
				0.0018351624021306634,
				-0.20701372623443604
			],
			"type":"VEC3"
		},
		{
			"bufferView":1,
			"componentType":5126,
			"count":7307,
			"type":"VEC3"
		},
		{
			"bufferView":2,
			"componentType":5126,
			"count":7307,
			"type":"VEC2"
		},
		{
			"bufferView":3,
			"componentType":5123,
			"count":14412,
			"type":"SCALAR"
		},
		{
			"bufferView":4,
			"componentType":5126,
			"count":6383,
			"max":[
				0.2786909341812134,
				0.4343928098678589,
				0.20657946169376373
			],
			"min":[
				-0.28697532415390015,
				0.0014851046726107597,
				-0.16076919436454773
			],
			"type":"VEC3"
		},
		{
			"bufferView":5,
			"componentType":5126,
			"count":6383,
			"type":"VEC3"
		},
		{
			"bufferView":6,
			"componentType":5126,
			"count":6383,
			"type":"VEC2"
		},
		{
			"bufferView":7,
			"componentType":5123,
			"count":12588,
			"type":"SCALAR"
		},
		{
			"bufferView":8,
			"componentType":5126,
			"count":1188,
			"max":[
				0.11407233774662018,
				0.0426066517829895,
				0.16786649823188782
			],
			"min":[
				-0.11385482549667358,
				-0.00011087363236583769,
				-0.16826017200946808
			],
			"type":"VEC3"
		},
		{
			"bufferView":9,
			"componentType":5126,
			"count":1188,
			"type":"VEC3"
		},
		{
			"bufferView":10,
			"componentType":5126,
			"count":1188,
			"type":"VEC2"
		},
		{
			"bufferView":11,
			"componentType":5123,
			"count":2100,
			"type":"SCALAR"
		},
		{
			"bufferView":12,
			"componentType":5126,
			"count":2949,
			"max":[
				0.10579163581132889,
				1.125053882598877,
				0.15500220656394958
			],
			"min":[
				-0.1053764671087265,
				0,
				-0.15571506321430206
			],
			"type":"VEC3"
		},
		{
			"bufferView":13,
			"componentType":5126,
			"count":2949,
			"type":"VEC3"
		},
		{
			"bufferView":14,
			"componentType":5126,
			"count":2949,
			"type":"VEC2"
		},
		{
			"bufferView":15,
			"componentType":5123,
			"count":9600,
			"type":"SCALAR"
		},
		{
			"bufferView":16,
			"componentType":5126,
			"count":810,
			"max":[
				0.02020634151995182,
				0.5553637742996216,
				0.06379431486129761
			],
			"min":[
				-0.02020585909485817,
				-1.028407723424607e-06,
				-0.0637945607304573
			],
			"type":"VEC3"
		},
		{
			"bufferView":17,
			"componentType":5126,
			"count":810,
			"type":"VEC3"
		},
		{
			"bufferView":18,
			"componentType":5126,
			"count":810,
			"type":"VEC2"
		},
		{
			"bufferView":19,
			"componentType":5123,
			"count":3600,
			"type":"SCALAR"
		},
		{
			"bufferView":20,
			"componentType":5126,
			"count":3810,
			"max":[
				0.2000049501657486,
				0.3050520718097687,
				0.13568753004074097
			],
			"min":[
				-0.2000049650669098,
				0,
				-0.1354910135269165
			],
			"type":"VEC3"
		},
		{
			"bufferView":21,
			"componentType":5126,
			"count":3810,
			"type":"VEC3"
		},
		{
			"bufferView":22,
			"componentType":5126,
			"count":3810,
			"type":"VEC2"
		},
		{
			"bufferView":23,
			"componentType":5123,
			"count":7800,
			"type":"SCALAR"
		},
		{
			"bufferView":24,
			"componentType":5126,
			"count":998,
			"max":[
				0.05730259418487549,
				0.20548231899738312,
				0.07677962630987167
			],
			"min":[
				-0.057071104645729065,
				0.0001550000160932541,
				-0.07691655308008194
			],
			"type":"VEC3"
		},
		{
			"bufferView":25,
			"componentType":5126,
			"count":998,
			"type":"VEC3"
		},
		{
			"bufferView":26,
			"componentType":5126,
			"count":998,
			"type":"VEC2"
		},
		{
			"bufferView":27,
			"componentType":5123,
			"count":4200,
			"type":"SCALAR"
		},
		{
			"bufferView":28,
			"componentType":5126,
			"count":2703,
			"max":[
				0.10800899565219879,
				0.278509259223938,
				0.10153968632221222
			],
			"min":[
				-0.10812877118587494,
				-0.0003429693460930139,
				-0.10132113099098206
			],
			"type":"VEC3"
		},
		{
			"bufferView":29,
			"componentType":5126,
			"count":2703,
			"type":"VEC3"
		},
		{
			"bufferView":30,
			"componentType":5126,
			"count":2703,
			"type":"VEC2"
		},
		{
			"bufferView":31,
			"componentType":5123,
			"count":7791,
			"type":"SCALAR"
		},
		{
			"bufferView":32,
			"componentType":5126,
			"count":4,
			"max":[
				0.08544765412807465,
				0.21316158771514893,
				-0.04147089272737503
			],
			"min":[
				-0.030558422207832336,
				0.15712764859199524,
				-0.04147089272737503
			],
			"type":"VEC3"
		},
		{
			"bufferView":33,
			"componentType":5126,
			"count":4,
			"type":"VEC3"
		},
		{
			"bufferView":34,
			"componentType":5126,
			"count":4,
			"type":"VEC2"
		},
		{
			"bufferView":35,
			"componentType":5123,
			"count":6,
			"type":"SCALAR"
		}
	],
	"bufferViews":[
		{
			"buffer":0,
			"byteLength":87684,
			"byteOffset":0,
			"target":34962
		},
		{
			"buffer":0,
			"byteLength":87684,
			"byteOffset":87684,
			"target":34962
		},
		{
			"buffer":0,
			"byteLength":58456,
			"byteOffset":175368,
			"target":34962
		},
		{
			"buffer":0,
			"byteLength":28824,
			"byteOffset":233824,
			"target":34963
		},
		{
			"buffer":0,
			"byteLength":76596,
			"byteOffset":262648,
			"target":34962
		},
		{
			"buffer":0,
			"byteLength":76596,
			"byteOffset":339244,
			"target":34962
		},
		{
			"buffer":0,
			"byteLength":51064,
			"byteOffset":415840,
			"target":34962
		},
		{
			"buffer":0,
			"byteLength":25176,
			"byteOffset":466904,
			"target":34963
		},
		{
			"buffer":0,
			"byteLength":14256,
			"byteOffset":492080,
			"target":34962
		},
		{
			"buffer":0,
			"byteLength":14256,
			"byteOffset":506336,
			"target":34962
		},
		{
			"buffer":0,
			"byteLength":9504,
			"byteOffset":520592,
			"target":34962
		},
		{
			"buffer":0,
			"byteLength":4200,
			"byteOffset":530096,
			"target":34963
		},
		{
			"buffer":0,
			"byteLength":35388,
			"byteOffset":534296,
			"target":34962
		},
		{
			"buffer":0,
			"byteLength":35388,
			"byteOffset":569684,
			"target":34962
		},
		{
			"buffer":0,
			"byteLength":23592,
			"byteOffset":605072,
			"target":34962
		},
		{
			"buffer":0,
			"byteLength":19200,
			"byteOffset":628664,
			"target":34963
		},
		{
			"buffer":0,
			"byteLength":9720,
			"byteOffset":647864,
			"target":34962
		},
		{
			"buffer":0,
			"byteLength":9720,
			"byteOffset":657584,
			"target":34962
		},
		{
			"buffer":0,
			"byteLength":6480,
			"byteOffset":667304,
			"target":34962
		},
		{
			"buffer":0,
			"byteLength":7200,
			"byteOffset":673784,
			"target":34963
		},
		{
			"buffer":0,
			"byteLength":45720,
			"byteOffset":680984,
			"target":34962
		},
		{
			"buffer":0,
			"byteLength":45720,
			"byteOffset":726704,
			"target":34962
		},
		{
			"buffer":0,
			"byteLength":30480,
			"byteOffset":772424,
			"target":34962
		},
		{
			"buffer":0,
			"byteLength":15600,
			"byteOffset":802904,
			"target":34963
		},
		{
			"buffer":0,
			"byteLength":11976,
			"byteOffset":818504,
			"target":34962
		},
		{
			"buffer":0,
			"byteLength":11976,
			"byteOffset":830480,
			"target":34962
		},
		{
			"buffer":0,
			"byteLength":7984,
			"byteOffset":842456,
			"target":34962
		},
		{
			"buffer":0,
			"byteLength":8400,
			"byteOffset":850440,
			"target":34963
		},
		{
			"buffer":0,
			"byteLength":32436,
			"byteOffset":858840,
			"target":34962
		},
		{
			"buffer":0,
			"byteLength":32436,
			"byteOffset":891276,
			"target":34962
		},
		{
			"buffer":0,
			"byteLength":21624,
			"byteOffset":923712,
			"target":34962
		},
		{
			"buffer":0,
			"byteLength":15582,
			"byteOffset":945336,
			"target":34963
		},
		{
			"buffer":0,
			"byteLength":48,
			"byteOffset":960920,
			"target":34962
		},
		{
			"buffer":0,
			"byteLength":48,
			"byteOffset":960968,
			"target":34962
		},
		{
			"buffer":0,
			"byteLength":32,
			"byteOffset":961016,
			"target":34962
		},
		{
			"buffer":0,
			"byteLength":12,
			"byteOffset":961048,
			"target":34963
		}
	],
	"samplers":[
		{
			"magFilter":9729,
			"minFilter":9987
		}
	],
	"buffers":[
		{
			"byteLength":961060,
			"uri":"cover_dress.bin"
		}
	]
}
