{
	"asset":{
		"generator":"Khronos glTF Blender I/O v4.2.83",
		"version":"2.0"
	},
	"scene":0,
	"scenes":[
		{
			"name":"Scene",
			"nodes":[
				0,
				1,
				2
			]
		}
	],
	"nodes":[
		{
			"mesh":0,
			"name":"rack"
		},
		{
			"mesh":1,
			"name":"jerrycan"
		},
		{
			"mesh":2,
			"name":"medicalBox"
		}
	],
	"materials":[
		{
			"doubleSided":true,
			"name":"worn_metal_rack",
			"normalTexture":{
				"index":0
			},
			"pbrMetallicRoughness":{
				"baseColorTexture":{
					"index":1
				},
				"metallicRoughnessTexture":{
					"index":2
				}
			}
		},
		{
			"doubleSided":true,
			"name":"metal_jerrycan_green",
			"normalTexture":{
				"index":3
			},
			"pbrMetallicRoughness":{
				"baseColorTexture":{
					"index":4
				},
				"metallicRoughnessTexture":{
					"index":5
				}
			}
		},
		{
			"doubleSided":true,
			"name":"medical_box",
			"normalTexture":{
				"index":6
			},
			"pbrMetallicRoughness":{
				"baseColorTexture":{
					"index":7
				},
				"metallicRoughnessTexture":{
					"index":8
				}
			}
		}
	],
	"meshes":[
		{
			"name":"rack",
			"primitives":[
				{
					"attributes":{
						"POSITION":0,
						"NORMAL":1,
						"TEXCOORD_0":2
					},
					"indices":3,
					"material":0
				}
			]
		},
		{
			"name":"jerrycan",
			"primitives":[
				{
					"attributes":{
						"POSITION":4,
						"NORMAL":5,
						"TEXCOORD_0":6
					},
					"indices":7,
					"material":1
				}
			]
		},
		{
			"name":"medicalBox",
			"primitives":[
				{
					"attributes":{
						"POSITION":8,
						"NORMAL":9,
						"TEXCOORD_0":10
					},
					"indices":11,
					"material":2
				}
			]
		}
	],
	"textures":[
		{
			"sampler":0,
			"source":0
		},
		{
			"sampler":0,
			"source":1
		},
		{
			"sampler":0,
			"source":2
		},
		{
			"sampler":0,
			"source":3
		},
		{
			"sampler":0,
			"source":4
		},
		{
			"sampler":0,
			"source":5
		},
		{
			"sampler":0,
			"source":6
		},
		{
			"sampler":0,
			"source":7
		},
		{
			"sampler":0,
			"source":8
		}
	],
	"images":[
		{
			"mimeType":"image/jpeg",
			"name":"worn_metal_rack_nor_gl_1k",
			"uri":"textures/worn_metal_rack_nor_gl_1k.jpg"
		},
		{
			"mimeType":"image/jpeg",
			"name":"worn_metal_rack_diff_1k",
			"uri":"textures/worn_metal_rack_diff_1k.jpg"
		},
		{
			"mimeType":"image/jpeg",
			"name":"worn_metal_rack_arm_1k",
			"uri":"textures/worn_metal_rack_arm_1k.jpg"
		},
		{
			"mimeType":"image/jpeg",
			"name":"metal_jerrycan_green_nor_gl_1k",
			"uri":"textures/metal_jerrycan_green_nor_gl_1k.jpg"
		},
		{
			"mimeType":"image/jpeg",
			"name":"metal_jerrycan_green_diff_1k",
			"uri":"textures/metal_jerrycan_green_diff_1k.jpg"
		},
		{
			"mimeType":"image/jpeg",
			"name":"metal_jerrycan_green_arm_1k",
			"uri":"textures/metal_jerrycan_green_arm_1k.jpg"
		},
		{
			"mimeType":"image/jpeg",
			"name":"medical_box_nor_gl_1k",
			"uri":"textures/medical_box_nor_gl_1k.jpg"
		},
		{
			"mimeType":"image/jpeg",
			"name":"medical_box_diff_1k",
			"uri":"textures/medical_box_diff_1k.jpg"
		},
		{
			"mimeType":"image/jpeg",
			"name":"medical_box_arm_1k",
			"uri":"textures/medical_box_arm_1k.jpg"
		}
	],
	"accessors":[
		{
			"bufferView":0,
			"componentType":5126,
			"count":7240,
			"max":[
				0.45770832896232605,
				1.899999976158142,
				0.30000001192092896
			],
			"min":[
				-0.45770832896232605,
				0,
				-0.30000001192092896
			],
			"type":"VEC3"
		},
		{
			"bufferView":1,
			"componentType":5126,
			"count":7240,
			"type":"VEC3"
		},
		{
			"bufferView":2,
			"componentType":5126,
			"count":7240,
			"type":"VEC2"
		},
		{
			"bufferView":3,
			"componentType":5123,
			"count":19116,
			"type":"SCALAR"
		},
		{
			"bufferView":4,
			"componentType":5126,
			"count":1719,
			"max":[
				0.18022015690803528,
				0.5000086426734924,
				0.0862174704670906
			],
			"min":[
				-0.18059246242046356,
				0,
				-0.0862174704670906
			],
			"type":"VEC3"
		},
		{
			"bufferView":5,
			"componentType":5126,
			"count":1719,
			"type":"VEC3"
		},
		{
			"bufferView":6,
			"componentType":5126,
			"count":1719,
			"type":"VEC2"
		},
		{
			"bufferView":7,
			"componentType":5123,
			"count":4797,
			"type":"SCALAR"
		},
		{
			"bufferView":8,
			"componentType":5126,
			"count":1871,
			"max":[
				0.26274073123931885,
				0.0975121483206749,
				0.17553143203258514
			],
			"min":[
				-0.26274073123931885,
				0.00016302276344504207,
				-0.17508463561534882
			],
			"type":"VEC3"
		},
		{
			"bufferView":9,
			"componentType":5126,
			"count":1871,
			"type":"VEC3"
		},
		{
			"bufferView":10,
			"componentType":5126,
			"count":1871,
			"type":"VEC2"
		},
		{
			"bufferView":11,
			"componentType":5123,
			"count":4200,
			"type":"SCALAR"
		}
	],
	"bufferViews":[
		{
			"buffer":0,
			"byteLength":86880,
			"byteOffset":0,
			"target":34962
		},
		{
			"buffer":0,
			"byteLength":86880,
			"byteOffset":86880,
			"target":34962
		},
		{
			"buffer":0,
			"byteLength":57920,
			"byteOffset":173760,
			"target":34962
		},
		{
			"buffer":0,
			"byteLength":38232,
			"byteOffset":231680,
			"target":34963
		},
		{
			"buffer":0,
			"byteLength":20628,
			"byteOffset":269912,
			"target":34962
		},
		{
			"buffer":0,
			"byteLength":20628,
			"byteOffset":290540,
			"target":34962
		},
		{
			"buffer":0,
			"byteLength":13752,
			"byteOffset":311168,
			"target":34962
		},
		{
			"buffer":0,
			"byteLength":9594,
			"byteOffset":324920,
			"target":34963
		},
		{
			"buffer":0,
			"byteLength":22452,
			"byteOffset":334516,
			"target":34962
		},
		{
			"buffer":0,
			"byteLength":22452,
			"byteOffset":356968,
			"target":34962
		},
		{
			"buffer":0,
			"byteLength":14968,
			"byteOffset":379420,
			"target":34962
		},
		{
			"buffer":0,
			"byteLength":8400,
			"byteOffset":394388,
			"target":34963
		}
	],
	"samplers":[
		{
			"magFilter":9729,
			"minFilter":9987
		}
	],
	"buffers":[
		{
			"byteLength":402788,
			"uri":"cover_rack.bin"
		}
	]
}
