{"asset":{"generator":"Khronos glTF Blender I/O v4.2.83","version":"2.0","extras":{"sources":["https://polyhaven.com/a/wooden_military_crate","https://polyhaven.com/a/old_military_crate","https://polyhaven.com/a/wooden_crate_02","https://polyhaven.com/a/wooden_crate_01"],"license":"CC0 1.0"}},"scene":0,"scenes":[{"name":"Scene","nodes":[0,1,2,3]}],"nodes":[{"mesh":0,"name":"militaryCrate"},{"mesh":1,"name":"ammoCrate"},{"mesh":2,"name":"longCrate"},{"mesh":3,"name":"smallCrate"}],"materials":[{"doubleSided":true,"name":"wooden_military_crate","normalTexture":{"index":0},"pbrMetallicRoughness":{"baseColorTexture":{"index":1},"metallicRoughnessTexture":{"index":2}}},{"doubleSided":true,"name":"military_crate_m_01","normalTexture":{"index":3},"pbrMetallicRoughness":{"baseColorTexture":{"index":4},"metallicRoughnessTexture":{"index":5}}},{"doubleSided":true,"name":"wooden_crate_02","normalTexture":{"index":6},"pbrMetallicRoughness":{"baseColorTexture":{"index":7},"metallicRoughnessTexture":{"index":8}}},{"doubleSided":true,"name":"wooden_crate_01","normalTexture":{"index":9},"pbrMetallicRoughness":{"baseColorTexture":{"index":10},"metallicRoughnessTexture":{"index":11}}}],"meshes":[{"name":"militaryCrate","primitives":[{"attributes":{"POSITION":0,"NORMAL":1,"TEXCOORD_0":2},"indices":3,"material":0}]},{"name":"ammoCrate","primitives":[{"attributes":{"POSITION":4,"NORMAL":5,"TEXCOORD_0":6},"indices":7,"material":1}]},{"name":"longCrate","primitives":[{"attributes":{"POSITION":8,"NORMAL":9,"TEXCOORD_0":10},"indices":11,"material":2}]},{"name":"smallCrate","primitives":[{"attributes":{"POSITION":12,"NORMAL":13,"TEXCOORD_0":14},"indices":15,"material":3}]}],"textures":[{"sampler":0,"source":0},{"sampler":0,"source":1},{"sampler":0,"source":2},{"sampler":0,"source":3},{"sampler":0,"source":4},{"sampler":0,"source":5},{"sampler":0,"source":6},{"sampler":0,"source":7},{"sampler":0,"source":8},{"sampler":0,"source":9},{"sampler":0,"source":10},{"sampler":0,"source":11}],"images":[{"mimeType":"image/jpeg","name":"wooden_military_crate_nor_gl_1k","uri":"../chests/wooden_military_crate/textures/wooden_military_crate_nor_gl_1k.jpg"},{"mimeType":"image/jpeg","name":"wooden_military_crate_diff_1k","uri":"textures/wooden_military_crate_su_diff_1k.jpg"},{"mimeType":"image/jpeg","name":"wooden_military_crate_arm_1k","uri":"../chests/wooden_military_crate/textures/wooden_military_crate_arm_1k.jpg"},{"mimeType":"image/jpeg","name":"old_military_crate_nor_gl_1k","uri":"textures/old_military_crate_nor_gl_1k.jpg"},{"mimeType":"image/jpeg","name":"old_military_crate_diff_1k","uri":"textures/old_military_crate_diff_1k.jpg"},{"mimeType":"image/jpeg","name":"old_military_crate_arm_1k","uri":"textures/old_military_crate_arm_1k.jpg"},{"mimeType":"image/jpeg","name":"wooden_crate_02_nor_gl_1k","uri":"textures/wooden_crate_02_nor_gl_1k.jpg"},{"mimeType":"image/jpeg","name":"wooden_crate_02_diff_1k","uri":"textures/wooden_crate_02_diff_1k.jpg"},{"mimeType":"image/jpeg","name":"wooden_crate_02_arm_1k","uri":"textures/wooden_crate_02_arm_1k.jpg"},{"mimeType":"image/jpeg","name":"wooden_crate_01_nor_gl_1k","uri":"textures/wooden_crate_01_nor_gl_1k.jpg"},{"mimeType":"image/jpeg","name":"wooden_crate_01_diff_1k","uri":"textures/wooden_crate_01_diff_1k.jpg"},{"mimeType":"image/jpeg","name":"wooden_crate_01_arm_1k","uri":"textures/wooden_crate_01_arm_1k.jpg"}],"accessors":[{"bufferView":0,"componentType":5126,"count":4217,"max":[0.6205541491508484,0.4647541046142578,0.2595253586769104],"min":[-0.6205541491508484,0.0002987143525388092,-0.2595253586769104],"type":"VEC3"},{"bufferView":1,"componentType":5126,"count":4217,"type":"VEC3"},{"bufferView":2,"componentType":5126,"count":4217,"type":"VEC2"},{"bufferView":3,"componentType":5123,"count":9600,"type":"SCALAR"},{"bufferView":4,"componentType":5126,"count":3137,"max":[0.40245357155799866,0.30067017674446106,0.23321355879306793],"min":[-0.4025706350803375,0.0002752177824731916,-0.23356479406356812],"type":"VEC3"},{"bufferView":5,"componentType":5126,"count":3137,"type":"VEC3"},{"bufferView":6,"componentType":5126,"count":3137,"type":"VEC2"},{"bufferView":7,"componentType":5123,"count":7800,"type":"SCALAR"},{"bufferView":8,"componentType":5126,"count":1973,"max":[0.26455047726631165,0.46395453810691833,0.5826184749603271],"min":[-0.26455047726631165,-7.082110096234828e-05,-0.5826184749603271],"type":"VEC3"},{"bufferView":9,"componentType":5126,"count":1973,"type":"VEC3"},{"bufferView":10,"componentType":5126,"count":1973,"type":"VEC2"},{"bufferView":11,"componentType":5123,"count":6597,"type":"SCALAR"},{"bufferView":12,"componentType":5126,"count":1768,"max":[0.4104797840118408,0.3491411507129669,0.2046789824962616],"min":[-0.4104797840118408,0.0009231391013599932,-0.2041091024875641],"type":"VEC3"},{"bufferView":13,"componentType":5126,"count":1768,"type":"VEC3"},{"bufferView":14,"componentType":5126,"count":1768,"type":"VEC2"},{"bufferView":15,"componentType":5123,"count":5400,"type":"SCALAR"}],"bufferViews":[{"buffer":0,"byteLength":50604,"byteOffset":0,"target":34962},{"buffer":0,"byteLength":50604,"byteOffset":50604,"target":34962},{"buffer":0,"byteLength":33736,"byteOffset":101208,"target":34962},{"buffer":0,"byteLength":19200,"byteOffset":134944,"target":34963},{"buffer":0,"byteLength":37644,"byteOffset":154144,"target":34962},{"buffer":0,"byteLength":37644,"byteOffset":191788,"target":34962},{"buffer":0,"byteLength":25096,"byteOffset":229432,"target":34962},{"buffer":0,"byteLength":15600,"byteOffset":254528,"target":34963},{"buffer":0,"byteLength":23676,"byteOffset":270128,"target":34962},{"buffer":0,"byteLength":23676,"byteOffset":293804,"target":34962},{"buffer":0,"byteLength":15784,"byteOffset":317480,"target":34962},{"buffer":0,"byteLength":13194,"byteOffset":333264,"target":34963},{"buffer":0,"byteLength":21216,"byteOffset":346460,"target":34962},{"buffer":0,"byteLength":21216,"byteOffset":367676,"target":34962},{"buffer":0,"byteLength":14144,"byteOffset":388892,"target":34962},{"buffer":0,"byteLength":10800,"byteOffset":403036,"target":34963}],"samplers":[{"magFilter":9729,"minFilter":9987}],"buffers":[{"byteLength":413836,"uri":"cover_crates.bin"}]}